<mxfile host="app.diagrams.net" agent="Mozilla/5.0 (Windows NT 10.0; Win64; x64) AppleWebKit/537.36 (KHTML, like Gecko) Chrome/133.0.0.0 Safari/537.36" version="26.0.16">
  <diagram name="Page-1" id="8UziDNdSAQJ0iDzosmNS">
    <mxGraphModel dx="1395" dy="1750" grid="1" gridSize="10" guides="1" tooltips="1" connect="1" arrows="1" fold="1" page="1" pageScale="1" pageWidth="850" pageHeight="1100" math="0" shadow="0">
      <root>
        <mxCell id="0" />
        <mxCell id="1" parent="0" />
        <mxCell id="yXBtAPpHWSnMEOyGfv3l-1" value="" style="rounded=0;whiteSpace=wrap;html=1;strokeWidth=4;opacity=80;labelBackgroundColor=none;strokeColor=light-dark(#4bff33, #a8a8ff);movable=1;resizable=1;rotatable=1;deletable=1;editable=1;locked=0;connectable=1;" parent="1" vertex="1">
          <mxGeometry x="40" y="-930" width="800" height="970" as="geometry" />
        </mxCell>
        <mxCell id="yXBtAPpHWSnMEOyGfv3l-4" value="" style="outlineConnect=0;dashed=0;verticalLabelPosition=bottom;verticalAlign=top;align=center;html=1;shape=mxgraph.aws3.vpc;fillColor=#F58534;gradientColor=none;movable=0;resizable=0;rotatable=0;deletable=0;editable=0;locked=1;connectable=0;" parent="1" vertex="1">
          <mxGeometry x="50" y="-925" width="50" height="50" as="geometry" />
        </mxCell>
        <mxCell id="b4bsQwXQGEgThEbb4vEH-2" value="" style="outlineConnect=0;dashed=0;verticalLabelPosition=bottom;verticalAlign=top;align=center;html=1;shape=mxgraph.aws3.internet_gateway;fillColor=#F58534;gradientColor=none;movable=0;resizable=0;rotatable=0;deletable=0;editable=0;locked=1;connectable=0;" vertex="1" parent="1">
          <mxGeometry x="415" y="-950" width="50" height="50" as="geometry" />
        </mxCell>
        <mxCell id="b4bsQwXQGEgThEbb4vEH-3" value="" style="outlineConnect=0;dashed=0;verticalLabelPosition=bottom;verticalAlign=top;align=center;html=1;shape=mxgraph.aws3.application_load_balancer;fillColor=#F58534;gradientColor=none;movable=0;resizable=0;rotatable=0;deletable=0;editable=0;locked=1;connectable=0;" vertex="1" parent="1">
          <mxGeometry x="415" y="-840" width="50" height="50" as="geometry" />
        </mxCell>
        <mxCell id="b4bsQwXQGEgThEbb4vEH-4" value="" style="sketch=0;outlineConnect=0;fontColor=#232F3E;gradientColor=none;fillColor=#232F3D;strokeColor=none;dashed=0;verticalLabelPosition=bottom;verticalAlign=top;align=center;html=1;fontSize=12;fontStyle=0;aspect=fixed;pointerEvents=1;shape=mxgraph.aws4.user;" vertex="1" parent="1">
          <mxGeometry x="401" y="-1080" width="78" height="78" as="geometry" />
        </mxCell>
        <mxCell id="b4bsQwXQGEgThEbb4vEH-6" value="" style="rounded=0;whiteSpace=wrap;html=1;dashed=1;strokeColor=#FF6666;strokeWidth=2;" vertex="1" parent="1">
          <mxGeometry x="60" y="-768" width="320" height="748" as="geometry" />
        </mxCell>
        <mxCell id="b4bsQwXQGEgThEbb4vEH-12" value="" style="rounded=0;whiteSpace=wrap;html=1;dashed=1;strokeColor=#FF6666;strokeWidth=2;" vertex="1" parent="1">
          <mxGeometry x="500" y="-768" width="320" height="748" as="geometry" />
        </mxCell>
        <mxCell id="b4bsQwXQGEgThEbb4vEH-14" value="" style="rounded=0;whiteSpace=wrap;html=1;fillColor=#cdeb8b;strokeColor=#FFFFFF;opacity=20;movable=0;resizable=0;rotatable=0;deletable=0;editable=0;locked=1;connectable=0;" vertex="1" parent="1">
          <mxGeometry x="70" y="-720" width="300" height="200" as="geometry" />
        </mxCell>
        <mxCell id="b4bsQwXQGEgThEbb4vEH-16" value="" style="rounded=0;whiteSpace=wrap;html=1;fillColor=#cdeb8b;strokeColor=#FFFFFF;opacity=20;" vertex="1" parent="1">
          <mxGeometry x="510" y="-720" width="300" height="200" as="geometry" />
        </mxCell>
        <mxCell id="b4bsQwXQGEgThEbb4vEH-17" value="" style="rounded=0;whiteSpace=wrap;html=1;fillColor=#cce5ff;strokeColor=#36393d;opacity=20;" vertex="1" parent="1">
          <mxGeometry x="70" y="-480" width="300" height="200" as="geometry" />
        </mxCell>
        <mxCell id="b4bsQwXQGEgThEbb4vEH-18" value="" style="rounded=0;whiteSpace=wrap;html=1;fillColor=#cce5ff;strokeColor=#36393d;opacity=20;" vertex="1" parent="1">
          <mxGeometry x="70" y="-243" width="300" height="200" as="geometry" />
        </mxCell>
        <mxCell id="b4bsQwXQGEgThEbb4vEH-19" value="" style="rounded=0;whiteSpace=wrap;html=1;fillColor=#cce5ff;strokeColor=#36393d;opacity=20;" vertex="1" parent="1">
          <mxGeometry x="510" y="-480" width="300" height="200" as="geometry" />
        </mxCell>
        <mxCell id="b4bsQwXQGEgThEbb4vEH-20" value="" style="rounded=0;whiteSpace=wrap;html=1;fillColor=#cce5ff;strokeColor=#36393d;opacity=20;" vertex="1" parent="1">
          <mxGeometry x="510" y="-240" width="300" height="190" as="geometry" />
        </mxCell>
        <mxCell id="b4bsQwXQGEgThEbb4vEH-21" value="" style="sketch=0;outlineConnect=0;fontColor=#232F3E;gradientColor=none;fillColor=#8C4FFF;strokeColor=none;dashed=0;verticalLabelPosition=bottom;verticalAlign=top;align=center;html=1;fontSize=12;fontStyle=0;aspect=fixed;pointerEvents=1;shape=mxgraph.aws4.nat_gateway;movable=0;resizable=0;rotatable=0;deletable=0;editable=0;locked=1;connectable=0;" vertex="1" parent="1">
          <mxGeometry x="70" y="-670" width="40" height="40" as="geometry" />
        </mxCell>
        <mxCell id="b4bsQwXQGEgThEbb4vEH-22" value="" style="points=[];aspect=fixed;html=1;align=center;shadow=0;dashed=0;fillColor=#FF6A00;strokeColor=none;shape=mxgraph.alibaba_cloud.bastionhost;" vertex="1" parent="1">
          <mxGeometry x="100" y="-590" width="37.89" height="30" as="geometry" />
        </mxCell>
        <mxCell id="b4bsQwXQGEgThEbb4vEH-23" value="Public subnet" style="points=[[0,0],[0.25,0],[0.5,0],[0.75,0],[1,0],[1,0.25],[1,0.5],[1,0.75],[1,1],[0.75,1],[0.5,1],[0.25,1],[0,1],[0,0.75],[0,0.5],[0,0.25]];outlineConnect=0;gradientColor=none;html=1;whiteSpace=wrap;fontSize=12;fontStyle=0;container=1;pointerEvents=0;collapsible=0;recursiveResize=0;shape=mxgraph.aws4.group;grIcon=mxgraph.aws4.group_security_group;grStroke=0;strokeColor=#7AA116;fillColor=#F2F6E8;verticalAlign=top;align=left;spacingLeft=30;fontColor=#248814;dashed=0;" vertex="1" parent="1">
          <mxGeometry x="80" y="-720" width="130" height="30" as="geometry" />
        </mxCell>
        <mxCell id="b4bsQwXQGEgThEbb4vEH-52" value="" style="endArrow=classic;startArrow=classic;html=1;rounded=0;strokeWidth=3;" edge="1" parent="b4bsQwXQGEgThEbb4vEH-23">
          <mxGeometry width="50" height="50" relative="1" as="geometry">
            <mxPoint x="30" y="70" as="sourcePoint" />
            <mxPoint x="340" y="-210" as="targetPoint" />
            <Array as="points">
              <mxPoint x="190" y="70" />
              <mxPoint x="190" y="-210" />
              <mxPoint x="270" y="-210" />
            </Array>
          </mxGeometry>
        </mxCell>
        <mxCell id="b4bsQwXQGEgThEbb4vEH-24" value="Public subnet" style="points=[[0,0],[0.25,0],[0.5,0],[0.75,0],[1,0],[1,0.25],[1,0.5],[1,0.75],[1,1],[0.75,1],[0.5,1],[0.25,1],[0,1],[0,0.75],[0,0.5],[0,0.25]];outlineConnect=0;gradientColor=none;html=1;whiteSpace=wrap;fontSize=12;fontStyle=0;container=1;pointerEvents=0;collapsible=0;recursiveResize=0;shape=mxgraph.aws4.group;grIcon=mxgraph.aws4.group_security_group;grStroke=0;strokeColor=#7AA116;fillColor=#F2F6E8;verticalAlign=top;align=left;spacingLeft=30;fontColor=#248814;dashed=0;" vertex="1" parent="1">
          <mxGeometry x="510" y="-720" width="130" height="30" as="geometry" />
        </mxCell>
        <mxCell id="b4bsQwXQGEgThEbb4vEH-25" value="Private subnet" style="points=[[0,0],[0.25,0],[0.5,0],[0.75,0],[1,0],[1,0.25],[1,0.5],[1,0.75],[1,1],[0.75,1],[0.5,1],[0.25,1],[0,1],[0,0.75],[0,0.5],[0,0.25]];outlineConnect=0;gradientColor=none;html=1;whiteSpace=wrap;fontSize=12;fontStyle=0;container=1;pointerEvents=0;collapsible=0;recursiveResize=0;shape=mxgraph.aws4.group;grIcon=mxgraph.aws4.group_security_group;grStroke=0;strokeColor=#00A4A6;fillColor=#E6F6F7;verticalAlign=top;align=left;spacingLeft=30;fontColor=#147EBA;dashed=0;" vertex="1" parent="1">
          <mxGeometry x="70" y="-480" width="130" height="30" as="geometry" />
        </mxCell>
        <mxCell id="b4bsQwXQGEgThEbb4vEH-26" value="Private subnet" style="points=[[0,0],[0.25,0],[0.5,0],[0.75,0],[1,0],[1,0.25],[1,0.5],[1,0.75],[1,1],[0.75,1],[0.5,1],[0.25,1],[0,1],[0,0.75],[0,0.5],[0,0.25]];outlineConnect=0;gradientColor=none;html=1;whiteSpace=wrap;fontSize=12;fontStyle=0;container=1;pointerEvents=0;collapsible=0;recursiveResize=0;shape=mxgraph.aws4.group;grIcon=mxgraph.aws4.group_security_group;grStroke=0;strokeColor=#00A4A6;fillColor=#E6F6F7;verticalAlign=top;align=left;spacingLeft=30;fontColor=#147EBA;dashed=0;" vertex="1" parent="1">
          <mxGeometry x="510" y="-243" width="130" height="30" as="geometry" />
        </mxCell>
        <mxCell id="b4bsQwXQGEgThEbb4vEH-27" value="Private subnet" style="points=[[0,0],[0.25,0],[0.5,0],[0.75,0],[1,0],[1,0.25],[1,0.5],[1,0.75],[1,1],[0.75,1],[0.5,1],[0.25,1],[0,1],[0,0.75],[0,0.5],[0,0.25]];outlineConnect=0;gradientColor=none;html=1;whiteSpace=wrap;fontSize=12;fontStyle=0;container=1;pointerEvents=0;collapsible=0;recursiveResize=0;shape=mxgraph.aws4.group;grIcon=mxgraph.aws4.group_security_group;grStroke=0;strokeColor=#00A4A6;fillColor=#E6F6F7;verticalAlign=top;align=left;spacingLeft=30;fontColor=#147EBA;dashed=0;" vertex="1" parent="1">
          <mxGeometry x="510" y="-480" width="130" height="30" as="geometry" />
        </mxCell>
        <mxCell id="b4bsQwXQGEgThEbb4vEH-28" value="Private subnet" style="points=[[0,0],[0.25,0],[0.5,0],[0.75,0],[1,0],[1,0.25],[1,0.5],[1,0.75],[1,1],[0.75,1],[0.5,1],[0.25,1],[0,1],[0,0.75],[0,0.5],[0,0.25]];outlineConnect=0;gradientColor=none;html=1;whiteSpace=wrap;fontSize=12;fontStyle=0;container=1;pointerEvents=0;collapsible=0;recursiveResize=0;shape=mxgraph.aws4.group;grIcon=mxgraph.aws4.group_security_group;grStroke=0;strokeColor=#00A4A6;fillColor=#E6F6F7;verticalAlign=top;align=left;spacingLeft=30;fontColor=#147EBA;dashed=0;" vertex="1" parent="1">
          <mxGeometry x="70" y="-240" width="130" height="30" as="geometry" />
        </mxCell>
        <mxCell id="b4bsQwXQGEgThEbb4vEH-29" value="" style="outlineConnect=0;dashed=0;verticalLabelPosition=bottom;verticalAlign=top;align=center;html=1;shape=mxgraph.aws3.ec2;fillColor=#F58534;gradientColor=none;" vertex="1" parent="1">
          <mxGeometry x="230" y="-610" width="40" height="40" as="geometry" />
        </mxCell>
        <mxCell id="b4bsQwXQGEgThEbb4vEH-31" value="" style="outlineConnect=0;dashed=0;verticalLabelPosition=bottom;verticalAlign=top;align=center;html=1;shape=mxgraph.aws3.ec2;fillColor=#F58534;gradientColor=none;" vertex="1" parent="1">
          <mxGeometry x="580" y="-370" width="50" height="40" as="geometry" />
        </mxCell>
        <mxCell id="b4bsQwXQGEgThEbb4vEH-32" value="" style="outlineConnect=0;dashed=0;verticalLabelPosition=bottom;verticalAlign=top;align=center;html=1;shape=mxgraph.aws3.ec2;fillColor=#F58534;gradientColor=none;" vertex="1" parent="1">
          <mxGeometry x="230" y="-374.37" width="40" height="40" as="geometry" />
        </mxCell>
        <mxCell id="b4bsQwXQGEgThEbb4vEH-33" value="" style="outlineConnect=0;dashed=0;verticalLabelPosition=bottom;verticalAlign=top;align=center;html=1;shape=mxgraph.aws3.ec2;fillColor=#F58534;gradientColor=none;" vertex="1" parent="1">
          <mxGeometry x="590" y="-610" width="40" height="40" as="geometry" />
        </mxCell>
        <mxCell id="b4bsQwXQGEgThEbb4vEH-34" value="" style="sketch=0;points=[[0,0,0],[0.25,0,0],[0.5,0,0],[0.75,0,0],[1,0,0],[0,1,0],[0.25,1,0],[0.5,1,0],[0.75,1,0],[1,1,0],[0,0.25,0],[0,0.5,0],[0,0.75,0],[1,0.25,0],[1,0.5,0],[1,0.75,0]];outlineConnect=0;fontColor=#232F3E;fillColor=#C925D1;strokeColor=#ffffff;dashed=0;verticalLabelPosition=bottom;verticalAlign=top;align=center;html=1;fontSize=12;fontStyle=0;aspect=fixed;shape=mxgraph.aws4.resourceIcon;resIcon=mxgraph.aws4.rds;" vertex="1" parent="1">
          <mxGeometry x="230" y="-140" width="50" height="50" as="geometry" />
        </mxCell>
        <mxCell id="b4bsQwXQGEgThEbb4vEH-35" value="" style="sketch=0;points=[[0,0,0],[0.25,0,0],[0.5,0,0],[0.75,0,0],[1,0,0],[0,1,0],[0.25,1,0],[0.5,1,0],[0.75,1,0],[1,1,0],[0,0.25,0],[0,0.5,0],[0,0.75,0],[1,0.25,0],[1,0.5,0],[1,0.75,0]];outlineConnect=0;fontColor=#232F3E;fillColor=#C925D1;strokeColor=#ffffff;dashed=0;verticalLabelPosition=bottom;verticalAlign=top;align=center;html=1;fontSize=12;fontStyle=0;aspect=fixed;shape=mxgraph.aws4.resourceIcon;resIcon=mxgraph.aws4.rds;" vertex="1" parent="1">
          <mxGeometry x="580" y="-140" width="50" height="50" as="geometry" />
        </mxCell>
        <mxCell id="b4bsQwXQGEgThEbb4vEH-39" value="" style="sketch=0;outlineConnect=0;fontColor=#232F3E;gradientColor=none;fillColor=#8C4FFF;strokeColor=none;dashed=0;verticalLabelPosition=bottom;verticalAlign=top;align=center;html=1;fontSize=12;fontStyle=0;aspect=fixed;pointerEvents=1;shape=mxgraph.aws4.route_table;" vertex="1" parent="1">
          <mxGeometry x="419.75" y="-609.49" width="40.53" height="39.49" as="geometry" />
        </mxCell>
        <mxCell id="b4bsQwXQGEgThEbb4vEH-37" value="" style="rounded=1;arcSize=10;dashed=1;strokeColor=#FFB570;fillColor=none;gradientColor=none;dashPattern=8 4;strokeWidth=2;movable=0;resizable=0;rotatable=0;deletable=0;editable=0;locked=1;connectable=0;" vertex="1" parent="1">
          <mxGeometry x="155" y="-440" width="570" height="139.5" as="geometry" />
        </mxCell>
        <mxCell id="b4bsQwXQGEgThEbb4vEH-43" value="" style="sketch=0;outlineConnect=0;fontColor=#232F3E;gradientColor=none;fillColor=#8C4FFF;strokeColor=none;dashed=0;verticalLabelPosition=bottom;verticalAlign=top;align=center;html=1;fontSize=12;fontStyle=0;aspect=fixed;pointerEvents=1;shape=mxgraph.aws4.route_table;" vertex="1" parent="1">
          <mxGeometry x="419.73" y="-369.49" width="40.53" height="39.49" as="geometry" />
        </mxCell>
        <mxCell id="b4bsQwXQGEgThEbb4vEH-36" value="" style="rounded=1;arcSize=10;dashed=1;strokeColor=#FFB570;fillColor=none;gradientColor=none;dashPattern=8 4;strokeWidth=2;movable=0;resizable=0;rotatable=0;deletable=0;editable=0;locked=1;connectable=0;" vertex="1" parent="1">
          <mxGeometry x="155" y="-680" width="570" height="139.5" as="geometry" />
        </mxCell>
        <mxCell id="b4bsQwXQGEgThEbb4vEH-44" value="" style="endArrow=classic;startArrow=classic;html=1;rounded=0;" edge="1" parent="1">
          <mxGeometry width="50" height="50" relative="1" as="geometry">
            <mxPoint x="400" y="-710" as="sourcePoint" />
            <mxPoint x="450" y="-760" as="targetPoint" />
          </mxGeometry>
        </mxCell>
        <mxCell id="b4bsQwXQGEgThEbb4vEH-48" value="" style="endArrow=classic;startArrow=classic;html=1;rounded=0;" edge="1" parent="1">
          <mxGeometry width="50" height="50" relative="1" as="geometry">
            <mxPoint x="400" y="-710" as="sourcePoint" />
            <mxPoint x="450" y="-760" as="targetPoint" />
          </mxGeometry>
        </mxCell>
        <mxCell id="b4bsQwXQGEgThEbb4vEH-49" value="" style="endArrow=classic;startArrow=classic;html=1;rounded=0;" edge="1" parent="1">
          <mxGeometry width="50" height="50" relative="1" as="geometry">
            <mxPoint x="400" y="-710" as="sourcePoint" />
            <mxPoint x="450" y="-760" as="targetPoint" />
          </mxGeometry>
        </mxCell>
        <mxCell id="b4bsQwXQGEgThEbb4vEH-50" value="" style="endArrow=classic;startArrow=classic;html=1;rounded=0;" edge="1" parent="1">
          <mxGeometry width="50" height="50" relative="1" as="geometry">
            <mxPoint x="400" y="-710" as="sourcePoint" />
            <mxPoint x="450" y="-760" as="targetPoint" />
          </mxGeometry>
        </mxCell>
        <mxCell id="b4bsQwXQGEgThEbb4vEH-51" value="" style="endArrow=classic;startArrow=classic;html=1;rounded=0;" edge="1" parent="1">
          <mxGeometry width="50" height="50" relative="1" as="geometry">
            <mxPoint x="400" y="-710" as="sourcePoint" />
            <mxPoint x="450" y="-760" as="targetPoint" />
          </mxGeometry>
        </mxCell>
        <mxCell id="b4bsQwXQGEgThEbb4vEH-54" value="" style="endArrow=classic;html=1;rounded=0;" edge="1" parent="1" target="b4bsQwXQGEgThEbb4vEH-17">
          <mxGeometry width="50" height="50" relative="1" as="geometry">
            <mxPoint x="120" y="-550" as="sourcePoint" />
            <mxPoint x="170" y="-600" as="targetPoint" />
          </mxGeometry>
        </mxCell>
        <mxCell id="b4bsQwXQGEgThEbb4vEH-56" value="" style="endArrow=classic;startArrow=classic;html=1;rounded=0;strokeWidth=3;" edge="1" parent="1">
          <mxGeometry width="50" height="50" relative="1" as="geometry">
            <mxPoint x="440" y="-840" as="sourcePoint" />
            <mxPoint x="440" y="-900" as="targetPoint" />
          </mxGeometry>
        </mxCell>
      </root>
    </mxGraphModel>
  </diagram>
</mxfile>
